<svg width="58" height="58" viewBox="0 0 58 58" fill="none" xmlns="http://www.w3.org/2000/svg">
<mask id="mask0_64_425" style="mask-type:alpha" maskUnits="userSpaceOnUse" x="0" y="0" width="58" height="58">
<circle cx="29" cy="29" r="29" fill="#D9D9D9"/>
</mask>
<g mask="url(#mask0_64_425)">
<path d="M38.2273 47.7842C38.2273 41.7781 43.0962 36.9092 49.1023 36.9092C55.1084 36.9092 59.9773 41.7781 59.9773 47.7842V58.6592H38.2273V47.7842Z" fill="#99BBFF"/>
<circle cx="48.7727" cy="28.3409" r="6.59091" fill="#99BBFF"/>
<path d="M-1.97726 47.7842C-1.97726 41.7781 2.89164 36.9092 8.89774 36.9092C14.9038 36.9092 19.7727 41.7781 19.7727 47.7842V58.6592H-1.97726V47.7842Z" fill="#99BBFF"/>
<circle cx="8.5682" cy="28.3409" r="6.59091" fill="#99BBFF"/>
<path d="M18.4546 50.4207C18.4546 44.4146 23.3235 39.5457 29.3296 39.5457C35.3357 39.5457 40.2046 44.4146 40.2046 50.4207V61.2957H18.4546V50.4207Z" fill="#5790FF"/>
<circle cx="29" cy="30.9774" r="6.59091" fill="#5790FF"/>
</g>
</svg>
