<svg width="58" height="58" viewBox="0 0 58 58" fill="none" xmlns="http://www.w3.org/2000/svg">
<mask id="mask0_62_321" style="mask-type:alpha" maskUnits="userSpaceOnUse" x="0" y="0" width="58" height="58">
<circle cx="29" cy="29" r="29" fill="#D9D9D9"/>
</mask>
<g mask="url(#mask0_62_321)">
<path d="M38.2273 47.7841C38.2273 41.778 43.0962 36.9091 49.1023 36.9091C55.1084 36.9091 59.9773 41.778 59.9773 47.7841V58.6591H38.2273V47.7841Z" fill="#6CA6D9"/>
<circle cx="48.7727" cy="28.3409" r="6.59091" fill="#6CA6D9"/>
<path d="M-1.97726 47.7841C-1.97726 41.778 2.89164 36.9091 8.89774 36.9091C14.9038 36.9091 19.7727 41.778 19.7727 47.7841V58.6591H-1.97726V47.7841Z" fill="#6CA6D9"/>
<circle cx="8.5682" cy="28.3409" r="6.59091" fill="#6CA6D9"/>
<path d="M18.4546 50.4204C18.4546 44.4143 23.3235 39.5454 29.3296 39.5454C35.3357 39.5454 40.2046 44.4143 40.2046 50.4204V61.2954H18.4546V50.4204Z" fill="#0069C6"/>
<circle cx="29" cy="30.9773" r="6.59091" fill="#0069C6"/>
</g>
</svg>
