<svg width="47" height="44" viewBox="0 0 47 44" fill="none" xmlns="http://www.w3.org/2000/svg">
<rect y="3" width="41" height="41" rx="7" fill="#D4E2FF"/>
<path d="M33.2568 6.37524C35.5834 8.70571 37.8914 11.0176 40.2272 13.3573C40.1402 13.4501 40.0179 13.5837 39.8919 13.7117C35.0054 18.6065 30.1097 23.4937 25.2417 28.4089C24.6786 28.9785 24.071 29.2939 23.2968 29.4349C21.3259 29.793 19.3661 30.2012 17.4026 30.5965C16.3949 30.7987 15.8392 30.2532 16.0411 29.255C16.4857 27.047 16.9191 24.8352 17.3822 22.631C17.4378 22.3619 17.5878 22.0706 17.7805 21.8758C22.8763 16.7528 27.9832 11.641 33.0883 6.52739C33.1512 6.46431 33.2216 6.40679 33.2568 6.37524Z" fill="#5790FF"/>
<path d="M42.461 11.1883C40.0955 8.81887 37.7894 6.50882 35.4146 4.13012C36.5631 3.05024 37.6541 1.8312 38.936 0.868213C40.8198 -0.545649 43.5242 -0.170846 45.1784 1.5436C46.8158 3.24135 47.0918 5.93177 45.6544 7.78167C44.6968 9.01369 43.5168 10.075 42.461 11.1883Z" fill="#5790FF"/>
</svg>
