<svg id="visual" viewBox="0 0 900 600" width="900" height="600" xmlns="http://www.w3.org/2000/svg" xmlns:xlink="http://www.w3.org/1999/xlink" version="1.1"><rect x="0" y="0" width="900" height="600" fill="#dcf0ff"></rect><defs><linearGradient id="grad1_0" x1="33.3%" y1="0%" x2="100%" y2="100%"><stop offset="20%" stop-color="#dcf0ff" stop-opacity="1"></stop><stop offset="80%" stop-color="#dcf0ff" stop-opacity="1"></stop></linearGradient></defs><defs><linearGradient id="grad2_0" x1="0%" y1="0%" x2="66.7%" y2="100%"><stop offset="20%" stop-color="#dcf0ff" stop-opacity="1"></stop><stop offset="80%" stop-color="#dcf0ff" stop-opacity="1"></stop></linearGradient></defs><g transform="translate(900, 0)"><path d="M0 324.5C-38.3 303.4 -76.6 282.3 -108.3 261.5C-140 240.7 -165.1 220.2 -199.4 199.4C-233.8 178.6 -277.4 157.5 -299.8 124.2C-322.2 90.9 -323.3 45.4 -324.5 0L0 0Z" fill="#819fff"></path></g><g transform="translate(0, 600)"><path d="M0 -324.5C38.3 -311.1 76.5 -297.7 117.9 -284.6C159.2 -271.4 203.6 -258.6 229.5 -229.5C255.3 -200.3 262.6 -155 275.3 -114C288.1 -73.1 306.3 -36.5 324.5 0L0 0Z" fill="#819fff"></path></g></svg>