<svg width="216" height="193" viewBox="0 0 216 193" fill="none" xmlns="http://www.w3.org/2000/svg">
<path d="M153.743 31.1234C167.984 32.6989 178.307 45.5681 176.73 59.8286L173.012 93.4302L121.34 87.7138L125.057 54.1122C126.633 39.871 139.502 29.548 153.762 31.1256M155.534 15.1138C132.421 12.5569 111.602 29.2277 109.045 52.3408L103.555 101.973L187.27 111.235L192.761 61.6021C195.318 38.4889 178.647 17.6708 155.534 15.1138Z" fill="#FF8E8B"/>
<g style="mix-blend-mode:multiply" opacity="0.5">
<path d="M175.757 78.6559C175.392 78.6155 175.026 78.575 174.66 78.5346L173.012 93.4301L121.34 87.7137L123.124 71.5865C119.733 72.4776 116.19 72.8065 112.803 72.4318C110.763 72.2061 108.805 71.7751 106.965 71.1431L103.557 101.954L187.272 111.215L191.155 76.1127C186.395 78.2938 180.962 78.9785 175.779 78.6388L175.757 78.6559Z" fill="#FF8E8B"/>
</g>
<path d="M192.698 87.8743L181.289 191.008L80.3495 179.841C76.2119 179.383 73.2337 175.664 73.6915 171.527L83.4445 83.3657C83.9022 79.2281 87.6213 76.2499 91.7589 76.7076L192.698 87.8743Z" fill="#FFA5A3"/>
<path d="M181.289 191.008L191.694 187.815C194.82 186.855 197.068 184.143 197.426 180.91L206.235 101.274C206.593 98.0412 204.994 94.8839 202.152 93.2837L192.696 87.8935L181.287 191.027L181.289 191.008Z" fill="#FF8E8B"/>
<g style="mix-blend-mode:multiply" opacity="0.5">
<path d="M192.698 87.8743L181.289 191.008C184.637 189.975 187.062 187.068 187.448 183.585L197.086 96.4635C197.471 92.9802 195.74 89.6133 192.698 87.8743Z" fill="#FF8E8B"/>
</g>
<path d="M140.997 129.083C143.415 127.305 145.137 124.593 145.494 121.36C146.167 115.278 141.783 109.826 135.721 109.155C129.659 108.485 124.187 112.866 123.517 118.929C123.161 122.142 124.228 125.182 126.217 127.448C123.914 135.765 118.866 154.453 119.499 155.244C120.321 156.27 130.341 157.787 130.341 157.787C130.341 157.787 140.451 158.497 141.477 157.675C142.268 157.042 141.427 137.702 140.997 129.083Z" fill="#0757B2"/>
<path d="M130.417 129.802C128.447 127.539 127.359 124.516 127.717 121.283C128.39 115.201 133.859 110.839 139.922 111.51C140.576 111.582 141.222 111.731 141.846 111.898C140.18 110.408 138.071 109.396 135.685 109.132C129.603 108.459 124.151 112.843 123.48 118.905C123.125 122.119 124.191 125.159 126.18 127.424C123.877 135.741 118.829 154.429 119.463 155.22C119.788 155.626 121.642 156.123 123.697 156.565C124.23 152.455 128.383 137.097 130.4 129.781L130.417 129.802Z" fill="#FF8E8B"/>
<g style="mix-blend-mode:multiply" opacity="0.5">
<path d="M123.576 137.052C125.212 137.233 126.716 137.73 128.078 138.446C128.947 135.172 129.794 132.09 130.417 129.802C130.417 129.802 130.4 129.781 130.383 129.759C128.803 129.253 127.393 128.435 126.161 127.422C125.474 129.937 124.526 133.397 123.559 137.03L123.576 137.052Z" fill="#FF8E8B"/>
</g>
<g style="mix-blend-mode:multiply" opacity="0.5">
<path d="M132.842 112.285C133.266 112.332 133.689 112.378 134.087 112.481C135.853 111.663 137.862 111.282 139.941 111.512C140.595 111.584 141.241 111.733 141.865 111.9C140.199 110.41 138.09 109.398 135.704 109.134C130.816 108.593 126.346 111.313 124.415 115.56C126.475 113.314 129.537 112.055 132.844 112.266L132.842 112.285Z" fill="#FF8E8B"/>
</g>
<path d="M97.6595 128.496L78.684 126.397L75.6821 153.533C76.144 153.759 76.653 153.913 77.1919 153.972C79.6552 154.245 81.8974 152.467 82.172 149.984L82.9938 142.556L85.4764 142.83L84.1585 154.743C83.886 157.206 85.6639 159.448 88.1465 159.723C90.6291 159.998 92.852 158.218 93.1266 155.735L94.4445 143.823L95.9648 143.991C100.256 144.465 104.104 141.385 104.579 137.093C105.053 132.801 101.972 128.954 97.6808 128.479L97.6595 128.496Z" fill="#FF8E8B"/>
<path d="M41.526 94.6049C51.8798 95.7503 59.3765 105.112 58.2311 115.466C57.0857 125.82 47.7239 133.316 37.3702 132.171C27.0164 131.025 19.5197 121.664 20.6651 111.31C21.8105 100.956 31.1723 93.4595 41.526 94.6049ZM43.0632 80.7101C25.0114 78.7131 8.76515 91.7404 6.77026 109.773C4.77538 127.805 17.7813 144.069 35.833 146.066C53.8847 148.063 70.1289 135.055 72.1259 117.003C74.1229 98.9512 61.1149 82.7071 43.0632 80.7101Z" fill="white"/>
<path d="M20.6651 111.31C21.8105 100.956 31.1723 93.4594 41.526 94.6049C48.8583 95.416 54.7429 100.333 57.1621 106.815C56.0014 98.466 49.2799 91.6055 40.5234 90.6368C30.1697 89.4914 20.8079 96.9882 19.6625 107.342C19.3283 110.363 19.7423 113.312 20.7315 115.993C20.5297 114.47 20.4884 112.907 20.6651 111.31Z" fill="#0757B2"/>
<path d="M70.751 103.37C71.3234 106.473 71.4703 109.723 71.1041 113.033C69.1071 131.084 52.8629 144.093 34.8112 142.095C21.513 140.624 10.9416 131.409 7.12343 119.435C9.71943 133.3 21.0915 144.435 35.833 146.066C53.8848 148.063 70.1289 135.055 72.1259 117.003C72.6518 112.249 72.13 107.633 70.7702 103.372L70.751 103.37Z" fill="#0757B2"/>
<path d="M96.2231 125.104L87.2742 124.114L86.1863 133.948C85.9138 136.411 87.6917 138.653 90.1743 138.928C92.6569 139.203 94.8798 137.423 95.1544 134.94L96.2424 125.106L96.2231 125.104Z" fill="white"/>
<path d="M96.2231 125.104L87.2742 124.114L86.693 129.368L95.6419 130.358L96.2231 125.104Z" fill="#0757B2"/>
<path d="M107.674 126.371L98.7249 125.381L97.1431 139.679C96.8706 142.143 98.6485 144.385 101.131 144.66C103.614 144.934 105.837 143.154 106.111 140.672L107.693 126.373L107.674 126.371Z" fill="white"/>
<path d="M107.655 126.368L98.7057 125.378L98.1245 130.632L107.073 131.622L107.655 126.368Z" fill="#0757B2"/>
<path d="M110.646 113.414L67.6338 108.655L65.9178 124.167L108.93 128.925C113.222 129.4 117.069 126.319 117.544 122.027C118.019 117.736 114.938 113.888 110.646 113.414Z" fill="white"/>
</svg>
