<svg id="visual" viewBox="0 0 900 600" width="900" height="600" xmlns="http://www.w3.org/2000/svg" xmlns:xlink="http://www.w3.org/1999/xlink" version="1.1"><rect x="0" y="0" width="900" height="600" fill="#d8eeff"></rect><defs><linearGradient id="grad1_0" x1="33.3%" y1="0%" x2="100%" y2="100%"><stop offset="20%" stop-color="#3c98fa" stop-opacity="1"></stop><stop offset="80%" stop-color="#3c98fa" stop-opacity="1"></stop></linearGradient></defs><defs><linearGradient id="grad1_1" x1="33.3%" y1="0%" x2="100%" y2="100%"><stop offset="20%" stop-color="#3c98fa" stop-opacity="1"></stop><stop offset="80%" stop-color="#64affc" stop-opacity="1"></stop></linearGradient></defs><defs><linearGradient id="grad1_2" x1="33.3%" y1="0%" x2="100%" y2="100%"><stop offset="20%" stop-color="#8ac5fd" stop-opacity="1"></stop><stop offset="80%" stop-color="#64affc" stop-opacity="1"></stop></linearGradient></defs><defs><linearGradient id="grad1_3" x1="33.3%" y1="0%" x2="100%" y2="100%"><stop offset="20%" stop-color="#8ac5fd" stop-opacity="1"></stop><stop offset="80%" stop-color="#b0dafe" stop-opacity="1"></stop></linearGradient></defs><defs><linearGradient id="grad1_4" x1="33.3%" y1="0%" x2="100%" y2="100%"><stop offset="20%" stop-color="#d8eeff" stop-opacity="1"></stop><stop offset="80%" stop-color="#b0dafe" stop-opacity="1"></stop></linearGradient></defs><defs><linearGradient id="grad2_0" x1="0%" y1="0%" x2="66.7%" y2="100%"><stop offset="20%" stop-color="#3c98fa" stop-opacity="1"></stop><stop offset="80%" stop-color="#3c98fa" stop-opacity="1"></stop></linearGradient></defs><defs><linearGradient id="grad2_1" x1="0%" y1="0%" x2="66.7%" y2="100%"><stop offset="20%" stop-color="#64affc" stop-opacity="1"></stop><stop offset="80%" stop-color="#3c98fa" stop-opacity="1"></stop></linearGradient></defs><defs><linearGradient id="grad2_2" x1="0%" y1="0%" x2="66.7%" y2="100%"><stop offset="20%" stop-color="#64affc" stop-opacity="1"></stop><stop offset="80%" stop-color="#8ac5fd" stop-opacity="1"></stop></linearGradient></defs><defs><linearGradient id="grad2_3" x1="0%" y1="0%" x2="66.7%" y2="100%"><stop offset="20%" stop-color="#b0dafe" stop-opacity="1"></stop><stop offset="80%" stop-color="#8ac5fd" stop-opacity="1"></stop></linearGradient></defs><defs><linearGradient id="grad2_4" x1="0%" y1="0%" x2="66.7%" y2="100%"><stop offset="20%" stop-color="#b0dafe" stop-opacity="1"></stop><stop offset="80%" stop-color="#d8eeff" stop-opacity="1"></stop></linearGradient></defs><g transform="translate(900, 0)"><path d="M0 432.7C-57.9 427.9 -115.7 423.2 -165.6 399.7C-215.4 376.3 -257.2 334.1 -290.6 290.6C-324 247.2 -349.1 202.5 -371.4 153.8C-393.7 105.2 -413.2 52.6 -432.7 0L0 0Z" fill="#c4e4fe"></path><path d="M0 346.1C-46.3 342.3 -92.6 338.6 -132.5 319.8C-172.3 301 -205.8 267.3 -232.5 232.5C-259.2 197.7 -279.3 162 -297.1 123.1C-314.9 84.2 -330.5 42.1 -346.1 0L0 0Z" fill="#9dcffe"></path><path d="M0 259.6C-34.7 256.8 -69.4 253.9 -99.3 239.8C-129.2 225.8 -154.3 200.4 -174.4 174.4C-194.4 148.3 -209.5 121.5 -222.8 92.3C-236.2 63.1 -247.9 31.6 -259.6 0L0 0Z" fill="#77bafd"></path><path d="M0 173.1C-23.1 171.2 -46.3 169.3 -66.2 159.9C-86.2 150.5 -102.9 133.6 -116.2 116.2C-129.6 98.9 -139.6 81 -148.6 61.5C-157.5 42.1 -165.3 21 -173.1 0L0 0Z" fill="#51a3fb"></path><path d="M0 86.5C-11.6 85.6 -23.1 84.6 -33.1 79.9C-43.1 75.3 -51.4 66.8 -58.1 58.1C-64.8 49.4 -69.8 40.5 -74.3 30.8C-78.7 21 -82.6 10.5 -86.5 0L0 0Z" fill="#3c98fa"></path></g><g transform="translate(0, 600)"><path d="M0 -432.7C58.1 -427.8 116.1 -423 165.6 -399.7C215 -376.5 255.8 -334.8 292.7 -292.7C329.6 -250.7 362.6 -208.4 385.3 -159.6C407.9 -110.7 420.3 -55.4 432.7 0L0 0Z" fill="#c4e4fe"></path><path d="M0 -346.1C46.5 -342.3 92.9 -338.4 132.5 -319.8C172 -301.2 204.7 -267.8 234.2 -234.2C263.7 -200.6 290.1 -166.7 308.2 -127.7C326.3 -88.6 336.2 -44.3 346.1 0L0 0Z" fill="#9dcffe"></path><path d="M0 -259.6C34.8 -256.7 69.7 -253.8 99.3 -239.8C129 -225.9 153.5 -200.9 175.6 -175.6C197.8 -150.4 217.6 -125.1 231.2 -95.7C244.8 -66.4 252.2 -33.2 259.6 0L0 0Z" fill="#77bafd"></path><path d="M0 -173.1C23.2 -171.1 46.5 -169.2 66.2 -159.9C86 -150.6 102.3 -133.9 117.1 -117.1C131.9 -100.3 145 -83.4 154.1 -63.8C163.2 -44.3 168.1 -22.1 173.1 0L0 0Z" fill="#51a3fb"></path><path d="M0 -86.5C11.6 -85.6 23.2 -84.6 33.1 -79.9C43 -75.3 51.2 -67 58.5 -58.5C65.9 -50.1 72.5 -41.7 77.1 -31.9C81.6 -22.1 84.1 -11.1 86.5 0L0 0Z" fill="#3c98fa"></path></g></svg>