<svg width="58" height="58" viewBox="0 0 58 58" fill="none" xmlns="http://www.w3.org/2000/svg">
<mask id="mask0_61_203" style="mask-type:alpha" maskUnits="userSpaceOnUse" x="0" y="0" width="58" height="58">
<circle cx="29" cy="29" r="29" fill="#D9D9D9"/>
</mask>
<g mask="url(#mask0_61_203)">
<path d="M38.2273 47.7841C38.2273 41.778 43.0962 36.9091 49.1023 36.9091C55.1084 36.9091 59.9773 41.778 59.9773 47.7841V58.6591H38.2273V47.7841Z" fill="#99CBDB"/>
<circle cx="48.7727" cy="28.3409" r="6.59091" fill="#99CBDB"/>
<path d="M-1.97728 47.7841C-1.97728 41.778 2.89162 36.9091 8.89772 36.9091C14.9038 36.9091 19.7727 41.778 19.7727 47.7841V58.6591H-1.97728V47.7841Z" fill="#99CBDB"/>
<circle cx="8.56817" cy="28.3409" r="6.59091" fill="#99CBDB"/>
<path d="M18.4545 50.4204C18.4545 44.4143 23.3234 39.5454 29.3295 39.5454C35.3356 39.5454 40.2045 44.4143 40.2045 50.4204V61.2954H18.4545V50.4204Z" fill="#7BB4B0"/>
<circle cx="29" cy="30.9773" r="6.59091" fill="#7BB4B0"/>
</g>
</svg>
