<svg width="61" height="75" viewBox="0 0 61 75" fill="none" xmlns="http://www.w3.org/2000/svg">
<path d="M2.20114 24.4597L54.8111 18.0419L60.2602 62.7107C60.5946 65.4518 58.6436 67.945 55.9025 68.2794L13.2189 73.4863C10.4778 73.8207 7.98464 71.8697 7.65026 69.1286L2.20114 24.4597Z" fill="white"/>
<path d="M1.11132 15.5259C0.776932 12.7848 2.72796 10.2916 5.46907 9.95723L48.1526 4.75029C50.8937 4.41591 53.3869 6.36694 53.7213 9.10804L54.8111 18.0418L2.20114 24.4597L1.11132 15.5259Z" fill="#99BBFF"/>
<path d="M26.2571 27.6556L12.1528 29.2962C11.5662 29.3644 11.1462 29.8957 11.2145 30.4829L12.8572 44.6042C12.9255 45.1914 13.4564 45.6121 14.0429 45.5439L28.1472 43.9033C28.7337 43.8351 29.1538 43.3038 29.0855 42.7166L27.4427 28.5953C27.3744 28.0081 26.8436 27.5873 26.2571 27.6556Z" fill="#C0DAFF"/>
<path opacity="0.42" d="M45.9946 25.3818L31.8903 27.0224C31.3038 27.0906 30.8837 27.622 30.952 28.2092L32.5948 42.3305C32.6631 42.9177 33.1939 43.3384 33.7804 43.2702L47.8848 41.6296C48.4713 41.5614 48.8913 41.03 48.823 40.4428L47.1803 26.3215C47.112 25.7343 46.5811 25.3136 45.9946 25.3818Z" fill="#99BBFF"/>
<path opacity="0.42" d="M28.5475 47.5245L14.4432 49.165C13.8567 49.2333 13.4366 49.7646 13.5049 50.3518L15.1477 64.4731C15.216 65.0603 15.7468 65.481 16.3333 65.4128L30.4376 63.7722C31.0242 63.704 31.4442 63.1727 31.3759 62.5855L29.7332 48.4642C29.6649 47.877 29.134 47.4562 28.5475 47.5245Z" fill="#99BBFF"/>
<path d="M48.4004 45.1026L34.296 46.7432C33.7095 46.8114 33.2894 47.3427 33.3578 47.9299L35.0005 62.0512C35.0688 62.6384 35.5997 63.0592 36.1862 62.9909L50.2905 61.3504C50.877 61.2821 51.2971 60.7508 51.2288 60.1636L49.586 46.0423C49.5177 45.4551 48.9869 45.0344 48.4004 45.1026Z" fill="#C0DAFF"/>
<path d="M19.2363 40.5884C18.9544 40.6227 18.659 40.5464 18.4227 40.3562L15.3739 37.9424C14.8956 37.5627 14.8105 36.8654 15.1897 36.3867C15.5688 35.9079 16.2653 35.823 16.7436 36.2027L18.9227 37.9251L23.0532 32.6978C23.4324 32.2191 24.1295 32.1397 24.6078 32.5194C25.086 32.8991 25.1656 33.5971 24.7864 34.0758L19.9655 40.1736C19.7762 40.4158 19.5072 40.5553 19.2246 40.5842L19.2363 40.5884Z" fill="#5790FF"/>
<path d="M41.3845 58.0311C41.1026 58.0655 40.8072 57.9892 40.5708 57.799L37.522 55.3852C37.0437 55.0054 36.9587 54.3081 37.3378 53.8294C37.717 53.3507 38.4134 53.2657 38.8917 53.6455L41.0708 55.3679L45.2014 50.1406C45.5805 49.6618 46.2776 49.5824 46.7559 49.9622C47.2342 50.3419 47.3137 51.0399 46.9345 51.5186L42.1136 57.6164C41.9244 57.8585 41.6553 57.9981 41.3727 58.0269L41.3845 58.0311Z" fill="#5790FF"/>
<path d="M36.3373 8.41456C33.7098 8.71825 31.8195 11.1112 32.1236 13.7419C32.4277 16.3726 34.8183 18.2657 37.4459 17.962C40.0734 17.6584 41.9637 15.2655 41.6596 12.6347C41.3555 10.004 38.9649 8.11088 36.3373 8.41456Z" fill="#99BBFF"/>
<path d="M18.4698 10.5943C15.8422 10.8979 13.9519 13.2909 14.256 15.9216C14.5601 18.5523 16.9508 20.4454 19.5783 20.1417C22.2059 19.8381 24.0961 17.4451 23.7921 14.8144C23.488 12.1837 21.0973 10.2906 18.4698 10.5943Z" fill="#99BBFF"/>
<path d="M37.3903 15.391C37.3136 15.4059 37.2369 15.4209 37.154 15.431C35.9594 15.5711 34.8732 14.7151 34.7323 13.5136L33.4726 2.6815C33.3323 1.48547 34.1925 0.397655 35.3878 0.263078C36.5824 0.122966 37.6685 0.978962 37.8095 2.18053L39.0692 13.0126C39.2 14.1312 38.4602 15.1481 37.3903 15.391Z" fill="#5790FF"/>
<path d="M17.5228 18.5706C17.4461 18.5856 17.3693 18.6005 17.2864 18.6106C16.0918 18.7508 15.0057 17.8948 14.8648 16.6932L13.6051 5.86113C13.4648 4.66509 14.325 3.57728 15.5203 3.4427C16.7149 3.30259 17.801 4.15859 17.9419 5.36016L19.2016 16.1922C19.3325 17.3108 18.5926 18.3277 17.5228 18.5706Z" fill="#5790FF"/>
</svg>
